<?xml version="1.0" encoding="UTF-8"?>
<svg id="Layer_2" data-name="Layer 2" xmlns="http://www.w3.org/2000/svg" viewBox="0 0 90.91 90.14">
  <defs>
    <style>
      .cls-1 {
        fill: #0b0b0b;
      }

      .cls-2 {
        fill: #be2f2e;
      }

      .cls-3 {
        fill: none;
      }

      .cls-4 {
        fill: #080808;
      }
    </style>
  </defs>
  <g id="Layer_1-2" data-name="Layer 1">
    <g>
      <path class="cls-3" d="M57.83,32.16c-.47-1.5-.98-2.5-1.89-3.59-.76,1.13-1.29,2.1-1.77,3.27l3.66.32Z"/>
      <path class="cls-3" d="M49.11,27.77c-1.06-1.06-1.97-1.78-3.2-2.21-.11,1.43-.1,2.57-.05,3.97,1.1-.61,2.19-1,3.25-1.76Z"/>
      <path class="cls-3" d="M55.13,28c-1.45-.11-2.73-.15-4.08.36l2.25,2.94,1.84-3.3Z"/>
      <path class="cls-3" d="M64.44,54.4c1.02-2.02,1.69-4.08,1.77-6.55-.76,1.03-1.38,1.93-2.34,2.82l.58,3.74Z"/>
      <path class="cls-3" d="M62.28,33.74c-1.2-1.94-2.88-3.51-4.91-4.74.73,1.04,1.12,2.11,1.51,3.38l3.4,1.36Z"/>
      <path class="cls-3" d="M64.4,37.33c-.63,5.49-1.18,2.27,1.73,6.73.02-2.43-.76-4.55-1.73-6.73Z"/>
      <path class="cls-3" d="M59.62,37.15l3.33-1.81c-1.22-.88-2.33-1.49-3.72-1.76.03,1.32.02,2.4.39,3.57Z"/>
      <path class="cls-3" d="M65.72,45.37c-.56-1.43-1.14-2.35-2.21-3.28l-1.62,3.34c1.37.04,2.46.15,3.82-.06Z"/>
      <path class="cls-3" d="M63.05,40.26c.48-1.29.5-2.58.4-4.05-1.33.53-2.3,1.14-3.56,1.95,1.22.68,2.08,1.34,3.16,2.11Z"/>
      <path class="cls-3" d="M51.87,31.11c-.49-1.02-1.11-1.8-1.91-2.63-1.05.36-1.87.86-2.92,1.5,1.66.2,3.14.58,4.83,1.13Z"/>
      <path class="cls-3" d="M34.6,38.9c1.29-1.46,2.3-2.77,3.88-3.73-.16-.85-.57-1.46-1.17-2.06-1.94,1.28-3.53,2.83-4.71,4.85.44.35,1.39,1.25,1.99.94Z"/>
      <path class="cls-3" d="M32.77,33.32c-.69.69-.56,2.15-.38,2.93l3.3-3.28c-.84-.05-2.21-.37-2.92.36Z"/>
      <path class="cls-3" d="M43.47,29.88c-.82-.41-1.84-1.4-2.74-1.18-.83.36-1.28,1.59-1.73,2.41l4.47-1.24Z"/>
      <path class="cls-3" d="M51.36,34.53c.56-.83.87-1.26,1.07-1.99-2.02-1.05-4.12-1.64-6.5-1.71-.16.78-.2,1.53.06,2.31,1.94.05,3.55.65,5.36,1.38Z"/>
      <path class="cls-3" d="M44.89,25.71c-1.34.41-2.4,1.08-3.25,2.15l3.21,1.65c.13-1.5.11-2.49.04-3.8Z"/>
      <path class="cls-3" d="M38.41,56.54c-1.66-1.07-2.8-2.24-3.82-3.75-.8.2-1.53.58-2.01,1.19,1.28,2,2.79,3.52,4.78,4.74.54-.66,1.08-1.29,1.04-2.18Z"/>
      <path class="cls-3" d="M32.36,55.47c-.17,1.17-.13,2.24.33,3.27,1.07.21,1.97.46,3.04.12-1.4-1.12-2.31-2.17-3.37-3.39Z"/>
      <path class="cls-3" d="M32.01,38.97c-1.07,2.04-1.56,4.16-1.64,6.43.84.11,1.51.15,2.31-.01,0-1.87.68-3.58,1.27-5.31-.32-.61-1.24-1-1.93-1.1Z"/>
      <path class="cls-3" d="M30.33,46.47c.1,2.38.66,4.41,1.7,6.48.73-.25,1.38-.56,2-1.12-.82-1.84-1.22-3.52-1.41-5.39-.8-.16-1.56-.2-2.29.04Z"/>
      <path class="cls-3" d="M39.64,34.38c1.8-.5,3.29-1.24,5.19-1.17.15-.97.18-1.54-.01-2.33-2.26,0-4.34.61-6.41,1.64.08.6.64,2.02,1.23,1.85Z"/>
      <path class="cls-3" d="M32.37,64.1c-2.81-1.4-4.19-3.82-5.72-5.97-4.99-7.01-5.1-16.92-.25-24.02,1.59-2.33,3.1-4.93,5.95-6.38.11-.17.27-.34-.05-.34-11.04,2.8-21,9.48-28.9,17.77-.48.51-.34,1.11.09,1.57,7.74,8.24,17.45,14.39,28.19,17.64.21-.09.28.17.69-.27ZM31.93,64.09s0,0,0,0c0,0,0,0,0,0Z"/>
      <path class="cls-3" d="M36.64,64.71l1.6.9c-.27.26-.53.15-.63.34,1.89.26,3.8.5,5.7.58-4.59-3.3-1.15-1.86-6.67-1.82Z"/>
      <path class="cls-3" d="M61.91,46.43l1.68,3.34c.97-1.04,1.77-2.04,2.26-3.42-1.53,0-2.67-.09-3.94.08Z"/>
      <path class="cls-3" d="M47.67,66.5c1.01-.09,2.18.09,3.16-.27,1.09-.39,2.19-.75,3.1-1.42-4.39-.35-2.6-1.34-6.26,1.69Z"/>
      <path class="cls-3" d="M27.43,49.34l1.49-2.91-3.42-.12c-.24,0-.42.08-.49.2.61,1.03,1.1,2.12,1.9,3.02.16.11.4.06.53-.19Z"/>
      <path class="cls-3" d="M47.55,25.64l2.81,1.69c1.03.62,2.56-.38,3.74-.27-.87-.54-1.8-.5-2.16-1.28-1.05,0-2.21-.23-3.26-.31-.35.08-.67-.07-1.14.17Z"/>
      <path class="cls-3" d="M58.23,58.68c.13-1.14.4-1.96.11-3.03l-3.21,3.22c1.11.31,2.05.14,3.11-.18Z"/>
      <path class="cls-3" d="M40.34,27.37c1.11.09,1.74-1.46,2.97-1.71-.37-.28-.73-.1-1.09-.22-1.03.1-2.18.35-3.21.34-.64.7-1.62.74-2.48,1.29l3.81.3Z"/>
      <path class="cls-3" d="M24.84,43.94l1.9-2.87c.68-1.03-.34-2.79-.39-3.98-.7,1.86-1.33,3.7-1.65,5.67.06.36-.14.71.15,1.19Z"/>
      <path class="cls-3" d="M26.33,54.64c-.03-.28-.07-.57-.1-.85-.12-1.26-.07-2.6.17-3.74-.69-.59-1.02-1.31-1.81-2.38.04,2.42.8,4.71,1.74,6.97Z"/>
      <path class="cls-3" d="M62.79,56.47c-1.27-.83-2.16-1.28-3.29-1.85-.26,1.32-.3,2.44-.25,3.67,1.35-.35,2.46-.84,3.54-1.82Z"/>
      <path class="cls-3" d="M62.86,50.47c-.44-1.24-.86-1.99-1.41-2.86l-1.17,4.64c1.07-.36,1.79-.95,2.59-1.78Z"/>
      <path class="cls-3" d="M59.99,53.72c1.17.78,2.15,1.34,3.34,1.89.24-1.59.22-2.78-.29-4.04l-3.05,2.16Z"/>
      <path class="cls-3" d="M56.22,52.71c-1.05,1.7-2.41,2.88-3.99,4.07.36.73.56,1.58,1.32,1.91,2.02-1.41,3.56-2.86,4.66-4.83-.6-.52-1.18-.86-1.99-1.15Z"/>
      <path class="cls-3" d="M60.24,39.57l1.21,4.52c.66-.9,1.17-1.79,1.33-2.98-1-.64-1.54-1.23-2.54-1.54Z"/>
      <path class="cls-3" d="M52.29,35.14c1.62,1.05,2.81,2.34,3.95,3.98.94-.41,1.44-.66,1.95-1.21-1.25-1.99-2.81-3.64-4.79-4.76-.52.64-.94,1.21-1.1,1.99Z"/>
      <path class="cls-3" d="M60.44,46.47c-.84-.18-1.6-.25-2.3.01-.14,1.99-.64,3.64-1.36,5.37.65.47,1.18.83,1.96,1.14,1.09-2.19,1.63-4.27,1.7-6.51Z"/>
      <path class="cls-3" d="M60.49,45.32c-.2-2.42-.68-4.47-1.72-6.41-.85.28-1.44.62-2.02,1.13.77,1.75,1.31,3.41,1.41,5.35.83.11,1.55.21,2.33-.07Z"/>
      <path class="cls-3" d="M58.36,36.27c.13-.85.39-2.39-.29-2.93-.79-.64-2.03-.43-3.04-.4,1.24,1.05,2.24,2.08,3.33,3.33Z"/>
      <path class="cls-3" d="M62.22,58.11c-4.12,1.69-2.86.33-4.57,4.59,1.93-1.32,3.45-2.65,4.57-4.59Z"/>
      <path class="cls-3" d="M51.1,54.93c.14.23.43.99.75.89.74-.2,4.97-3.82,2.58-4.23-.85,1.35-1.98,2.49-3.33,3.34Z"/>
      <path class="cls-3" d="M54.35,40.13c2.79.1-1.77-3.98-2.5-4.2-.35.04-.57.62-.76.97,1.31.83,2.42,1.93,3.26,3.23Z"/>
      <path class="cls-3" d="M55.95,51.3c.78-1.46,1.29-3.17,1.19-4.82-.25-.26-.92-.15-1.09.02-.09,1.57-.52,3.11-1.27,4.5.44.14.71.29,1.17.3Z"/>
      <path class="cls-3" d="M39.6,36.97c-.17-.35-.34-.85-.69-.99-1.4.82-2.66,2.06-3.39,3.57-.1.27.65.52.91.62.82-1.28,1.9-2.37,3.18-3.19Z"/>
      <path class="cls-3" d="M57.21,45.36c-.1-1.75-.46-3.52-1.36-4.86-.36.06-.64.22-.78.3-.24.13.02.49.02.68.58,1.26.9,2.61.96,3.99.34,0,.72.07,1.16-.11Z"/>
      <path class="cls-3" d="M36.38,51.61c-2.45.4,1.42,3.55,2.37,4.09.44.25.81-.52.82-.86-1.28-.84-2.37-1.94-3.19-3.24Z"/>
      <path class="cls-3" d="M40.02,35.4c-.26.17.28.93.57.99,1.35-.68,2.83-1.07,4.34-1.13.74-2.36-3.89-.51-4.91.14Z"/>
      <path class="cls-3" d="M50.88,35.37c-1.49-.78-3.11-1.41-4.85-1.26-.29.14-.22.86-.27,1.15,1.57.05,3.11.45,4.51,1.17.33-.28.56-.48.62-1.05Z"/>
      <path class="cls-3" d="M51.21,63.5c1.32.38,2.56.63,3.9.29-.75-1.27-1.11-2.35-1.96-3.26l-1.93,2.97Z"/>
      <path class="cls-3" d="M58.64,27.4c-.32.08.06.26.13.44,2.15,1.49,3.79,3.18,5.2,5.27,6.99,10.33,4.56,24.08-5.66,31.19h.08c-.03-.06.37-.3.72-.27.02,0,.03.02.05.05-.33.14-.53.21-.65.23l.72.07c11-3.22,21.03-9.8,28.8-18.44-8.12-8.94-18.2-15.62-29.4-18.54Z"/>
      <path class="cls-3" d="M39.71,28.3c-1.37-.34-2.66-.56-4.06-.23.69,1.23,1.13,2.27,1.95,3.26.63-1.11,1.31-1.98,2.11-3.03Z"/>
      <path class="cls-3" d="M34.89,40.61c-.64.95-2.45,5.64-.15,4.87.06-1.49.44-2.95,1.1-4.29.06-.32-.71-.94-.95-.58Z"/>
      <path class="cls-3" d="M52.47,59.25c-.34-.76-.68-1.3-1.17-1.95-1.8.71-3.52,1.24-5.43,1.41-.05.83-.13,1.48.09,2.3,2.38-.12,4.49-.7,6.51-1.76Z"/>
      <path class="cls-3" d="M47.08,62.04c.89.28,2.09,1.58,3.13,1.03.86-.45,1.24-1.57,1.58-2.26l-4.71,1.23Z"/>
      <path class="cls-3" d="M46.01,57.72c1.72.07,3.32-.53,4.8-1.2-.06-.5-.2-.77-.34-1.22-1.39.75-2.93,1.18-4.51,1.27-.15.21-.23,1.14.06,1.16Z"/>
      <path class="cls-3" d="M45.99,66.21c1.29-.47,2.29-1.11,3.3-2.18l-3.37-1.7c-.1,1.35-.1,2.52.07,3.88Z"/>
      <path class="cls-3" d="M54.03,59.95l1.93,3.41c.92-1.21,1.7-2.32,1.74-3.64-1.66.03-2.49.09-3.67.23Z"/>
      <path class="cls-3" d="M30.46,39.6c-.74.42-2.13.88-2.34,1.77-.12,1.02.77,2,1.2,2.88l1.14-4.65Z"/>
      <path class="cls-3" d="M25,45.41c1.32.07,2.38.16,3.79-.02-.63-1.27-.91-2.22-1.61-3.28-1.06,1.07-1.63,2.07-2.18,3.31Z"/>
      <path class="cls-3" d="M30.51,52.38l-1.21-4.73c-.39.77-1.45,1.86-1.21,2.85.3.93,1.69,1.34,2.42,1.88Z"/>
      <path class="cls-3" d="M30.8,38.14c-1.08-.82-2.12-1.39-3.38-1.95-.2,1.49-.09,2.71.28,4.1,1.03-.82,1.97-1.47,3.1-2.15Z"/>
      <path class="cls-3" d="M36.6,31.8l-1.76-3.25c-.95.96-1.46,2.05-1.83,3.56l3.59-.32Z"/>
      <path class="cls-3" d="M27.7,51.6c-.4,1.43-.48,2.62-.28,4.08,1.14-.71,2.29-1.07,3.28-1.97l-3.01-2.11Z"/>
      <path class="cls-3" d="M33.18,29.1c-1.97,1.32-3.55,2.73-4.7,4.71,4.85-2.36,2.52.22,4.7-4.71Z"/>
      <path class="cls-3" d="M33.6,46.5c-.11.89.66,5.25,1.8,4.69.24-.12.37-.39.38-.65-.64-1.33-1-2.79-1.05-4.27-.31.06-.99-.04-1.14.23Z"/>
      <path class="cls-3" d="M31.54,33.52c-1.51.27-2.65.93-3.57,1.83l3.31,1.91c.15-1.45.34-2.51.26-3.74Z"/>
      <path class="cls-3" d="M39.54,57.23c-.63.55-.95,1.21-1.14,2.03,2.02,1.06,4.14,1.64,6.45,1.73.15-.91.16-1.52,0-2.29-1.9-.16-3.57-.59-5.3-1.47Z"/>
      <path class="cls-3" d="M35.73,63.77c1.38.2,2.55.17,3.84-.27l-1.97-3.06c-.78,1.17-1.28,2.14-1.87,3.34Z"/>
      <path class="cls-3" d="M38.89,60.68c.51.99,1.04,1.77,1.75,2.62,1.12-.26,2.1-.57,2.95-1.32l-4.7-1.31Z"/>
      <path class="cls-3" d="M39.97,56.46c1.51.78,3.28,1.42,4.91,1.2.27-.42-.17-1.12-.54-1.14-1.38-.14-2.72-.54-3.95-1.2-.17.34-.52.77-.42,1.13Z"/>
      <path class="cls-3" d="M44.92,66.24v-3.91s-3.34,1.71-3.34,1.71c.98,1.04,2.03,1.72,3.34,2.21Z"/>
      <path class="cls-3" d="M28.46,58.04c1.3,2,2.85,3.49,4.71,4.65l-1.38-3.42-3.33-1.23Z"/>
      <path class="cls-3" d="M33.03,59.75c.26,1.4.88,2.52,1.83,3.53.73-1.16,1.33-2.04,1.82-3.31-1.41-.17-2.41-.24-3.64-.22Z"/>
      <path class="cls-3" d="M31.31,54.6c-1.34.65-2.3,1.18-3.32,1.85,1.12.96,2.25,1.64,3.62,1.91-.09-1.55-.1-2.58-.3-3.76Z"/>
      <path d="M45.2,88.82c0,.4.01.83.1,1.32.61-.77.47-1.65.46-2.53v.19c-.24.28-.42.7-.56,1.02Z"/>
      <path d="M81.57,60.87c.47.45,1.02.87,1.78.92-.51-.5-.96-.91-1.52-1.22.1.27.02.37-.26.31Z"/>
      <path d="M8.65,60.83c-.39.29-.9.42-1.15.97.7.1.95-.54,1.36-.74-.42.23-.48.17-.21-.23Z"/>
      <path d="M78.84,65.07c.29.27.61.77,1.11.8l.23-.22-1.13-.79c.4.33.26.48-.22.22Z"/>
      <path d="M71.08,72.39c.33.34.55.81,1.02,1.13.11-.74-.54-.98-.76-1.39.11.29.02.37-.26.25Z"/>
      <path d="M79.7,26.62c.39-.3.79-.59,1.11-1.1-.68-.12-.92.39-1.25.69.31-.21.4-.02.14.4Z"/>
      <path d="M67.09,16.23c.24-.4.81-.74.61-1.38-.65.36-.63.91-.92,1.24.34-.39.51-.28.31.13Z"/>
      <path class="cls-1" d="M82.87,30.37h.01c.29-.21.63-.37.87-.76-.62-.24-.77.3-1.03.52.3-.18.34-.1.15.25Z"/>
      <path class="cls-4" d="M66.73,75.88c.22.3.36.67.79.89.18-.49-.12-.7-.35-.92.09.18-.09.22-.44.03Z"/>
      <path d="M23.91,15.84c-.22-.3-.37-.66-.79-.88-.18.49.13.69.35.91-.08-.18.09-.21.44-.02Z"/>
      <path d="M10.99,65.38c-.24.27-.71.34-.88.79.46.24.67-.12.87-.36-.17.06-.19-.1.01-.43Z"/>
      <path d="M76.22,22.49c.17-.19.81-.2.47-.77-.31.1-.47.38-.66.54.36-.23.44-.16.2.23Z"/>
      <path class="cls-1" d="M79.95,65.87c.24.13.41.53.8.64.23-.64-.3-.67-.56-.86.4.35.24.49-.23.22Z"/>
      <path class="cls-1" d="M80.18,65.65l-.23.22c.47.27.63.12.23-.22Z"/>
      <path d="M13.08,29.88c-.12.21.04.21.14.2.19-.02.31,0,.41-.04,4.05-2.4,8.14-4.68,12.67-6.41,12.07-4.62,22.97-5.1,35.3-1.08,5.87,1.92,11.05,4.8,16.24,7.82.09-.07.16-.15.22-.24l-.88-1.11c.78-.97,1.63-1.72,2.51-2.39-.07-.12-.16-.22-.28-.3l-3.24,2.02-3.18-2.1c.64-.92,1.41-1.5,1.87-2.4.1-.22-.02-.24-.17-.23-.17.02-.3,0-.4.04-.76.51-1.52,1.47-2.47,1.82-1.12-.14-2.09-1.16-3.19-1.65.76-1.39,1.79-2.37,2.4-3.69l-.27-.28c-1.18.9-2.09,2.1-3.35,3.22-1.11-.24-2.07-.88-3.19-1.34.92-1.99,2.06-3.56,2.79-5.39-.05-.12-.13-.22-.25-.25-1.37,1.56-2.49,3.3-3.87,5.07-1.11-.26-2.09-.67-3.24-1.12l1.97-5.57c-.05-.2-.15-.38-.29-.52l-3.13,5.54c-1.03,0-1.92-.4-3.1-.59l1.42-6.87c-.08-.18-.19-.35-.32-.49l-2.73,6.9c-1,.09-1.87-.11-2.89-.35l.34-9.08-2.1,8.83c-.59.18-1.28.13-1.95-.06l-1.46-17.8-1.5,17.74c-.49.3-1.36.35-1.93.08l-1.66-7.69c-.32-.81-.31,2.8-.32,2.43l.21,5.53c-.95.33-1.81.45-2.84.4-1.07-2.56-2.06-5.03-2.96-7.54-.25.07-.3.34-.28.57l1.63,7.3c-.96.37-1.9.55-3.04.78l-3.45-5.9-.28.25,2.15,6.19c-1.16.44-2.08.82-3.19,1.06l-4.05-5.36-.26.26c.77,1.93,1.98,3.62,2.96,5.67l-3.05,1.4-3.72-3.57c-.11.06-.21.16-.28.27.67,1.35,1.71,2.45,2.61,3.9-.92.71-1.97,1.29-3.13,1.79l-4.95-3.73,3.73,4.43-3.18,2.13-2.88-1.78c-.12.03-.22.12-.24.24.6.63,1.39,1.28,2,2.03.17.21-.18.92-.44,1.01Z"/>
      <path d="M79.56,26.22s-.09.08-.14.11c.12.08.21.18.28.3.26-.43.17-.61-.14-.4Z"/>
      <path d="M67.03,16.35s.04-.08.06-.12c.19-.41.03-.52-.31-.13.12.04.21.14.25.25Z"/>
      <path d="M23.47,15.87c.03.06.09.14.18.24l.26-.26c-.35-.19-.52-.16-.44.02Z"/>
      <path d="M81.08,59.76c-.16-.13-.4-.15-.57-.27l-9.19,5.69c-7.76,4.81-16.87,6.88-26.14,6.85-6.62-.02-12.9-1.48-19.01-3.77-5.79-2.17-10.79-5.38-15.77-8.76-.19.09-.4.15-.58.26-.45.29-.76.76-1.18,1.07l.21.23c.48-.23,1.05-.36,1.64-.72l3.15,2.46c-.49.74-1.11,1.2-1.61,1.81.08.11.17.22.27.31.76-.34,1.42-.82,2.25-1.4,1.16.6,2.17,1.31,3.31,2.14l-2.8,3.25.21.22,3.69-2.79c1.14.56,2.09,1.08,3.19,1.79-.71,1.12-1.42,1.96-1.98,2.96.02-.03-.12.65,0,.67.04-.04.08-.08.13-.12,1.12-.81,1.92-1.94,3.05-2.94l3.28,1.45-2.49,4.95c.08.12.19.22.31.3l3.45-4.67c1.24.24,2.32.59,3.4,1.15-.71,1.96-1.65,3.56-2.06,5.38.11.11.22.21.34.29l3.14-5.26c1,.08,1.96.39,3.1.73l-1.44,6.4c-.01.23.06.49.31.56l2.69-6.69c1.05.1,2,.19,2.99.47l-.37,5.95c-.03.53-.1,1.27.32,1.62l1.63-7.45c.66-.12,1.59-.2,2.03.23l1.18,14.77s.02-.04.02-.05c0-.21,0-.41,0-.6.15-.33.33-.79.57-1.08-.01.16-.01.31-.01.47l1.07-13.48c.43-.41,1.47-.43,1.99-.16l1.76,7.63c.32-.14.3-.53.3-.83l-.42-7.04c1.09-.18,1.95-.37,2.99-.4l2.76,6.92c.12-.09.23-.19.33-.29l-1.54-6.81c1.02-.43,2.02-.62,3.12-.81,1.14,1.66,1.78,3.47,3.02,4.92.19-.11.19-.34.21-.53l-1.82-4.83c1.02-.58,2.02-.83,3.29-1.24l3.91,5.24.25-.25-2.83-5.44c1.02-.64,2.1-.97,3.24-1.52l3.68,3.73c.12-.04.21-.14.26-.25-.73-1.38-1.81-2.54-2.68-3.97,1.04-.74,2.08-1.3,3.19-1.89,1.38.93,2.39,2.16,3.77,2.89l.02-.27c-.74-1.15-1.8-1.98-2.74-3.23l3.27-2.18c1.01.56,1.68,1.34,2.66,1.59l.22-.22c-.72-.51-1.37-1.17-1.94-2.1l3.11-2.43c.48.22.99.33,1.34.54.1-.09.19-.19.26-.31-.31-.17-.49-.58-.75-.8Z"/>
      <path d="M45.77,87.14c-.06.63-.25.99-.57,1.08,0,.19,0,.39,0,.6.14-.32.32-.75.55-1.02v-.19c.01-.16.02-.31.03-.47Z"/>
      <path d="M20.12,71.83s.05-.05.08-.08c0,0,0,0-.01,0-.02.02-.05.05-.07.08Z"/>
      <path d="M45.77,87.14c-.24.29-.42.75-.57,1.08.32-.09.52-.45.57-1.08Z"/>
      <path d="M81.83,60.56c-.07.11-.16.22-.26.31.28.06.37-.04.26-.31Z"/>
      <path d="M8.86,61.06l-.21-.23c-.27.4-.21.46.21.23Z"/>
      <path d="M79.05,64.86l-.22.22c.47.26.62.12.22-.22Z"/>
      <path d="M71.08,72.39c.28.12.37.03.26-.25-.05.12-.14.21-.26.25Z"/>
      <path d="M67.18,75.85c-.03-.06-.09-.14-.19-.23l-.25.25c.35.19.53.15.44-.03Z"/>
      <path d="M13.08,29.88c-.66.24-1.67,1.27-2.35,1.65-1.32-.39-2.02-1.4-3.24-1.59.89.95,1.87,1.66,2.85,2.32,1.31-.65,2.21-1.59,3.28-2.22-.57.27-1.12.44-.55-.16Z"/>
      <path d="M13.08,29.88c-.57.61-.02.43.55.16-.1.03-.22.03-.41.04-.11,0-.26.01-.14-.2Z"/>
      <path d="M77.84,30.37c.87.51,1.54,1.55,2.7,1.88l2.34-1.86h0s-.02,0-.03.01l-.23-.21c-.79.34-1.51.91-2.41,1.35-.88-.36-1.33-1.17-2.15-1.41.11.25.04.33-.22.24Z"/>
      <path d="M82.85,30.41s.02-.01.03-.02h-.01s0,0-.02.02Z"/>
      <path class="cls-1" d="M82.87,30.37c.19-.35.14-.43-.15-.25-.03.03-.06.05-.1.06h0s.02-.01.03-.01l.22.2Z"/>
      <path class="cls-1" d="M82.87,30.37l-.22-.2s-.02.01-.03.02l.23.21s0-.02.02-.03Z"/>
      <path d="M78.06,30.13c-.06.09-.13.17-.22.24.26.09.33.01.22-.24Z"/>
      <path d="M39.99,9.93c.03-.29.26-.2.35.2-.1-.46-.17-.93-.46-1.39-.09.36-.22,4.34.14,3.81-.17-.84-.11-1.77-.02-2.63Z"/>
      <path d="M40.33,10.13c-.09-.4-.31-.49-.35-.2-.09.86-.15,1.78.02,2.63.01.37,0-3.24.32-2.43Z"/>
      <path d="M61.15,77.25c.44.51.37,1.45,1.08,2.01.08-1.04-.58-1.76-.87-2.54.17.5.11.68-.21.53Z"/>
      <path d="M61.15,77.25c.31.15.38-.03.21-.53-.01.19-.02.42-.21.53Z"/>
      <path d="M74.88,23.85c.38-.4,1.11-.68,1.3-1.3-.02-.14-.08-.28-.25-.23-.62.34-1.05.96-1.62,1.34.94-.6,1.13-.53.57.19Z"/>
      <path d="M76.18,22.54s.02-.04.04-.06c.24-.4.16-.47-.2-.23-.03.02-.06.04-.09.06.17-.05.23.09.25.23Z"/>
      <path d="M74.88,23.85c.56-.72.37-.78-.57-.19.1-.04.23-.03.4-.04.15-.01.27.01.17.23Z"/>
      <path d="M20.19,71.08c-.37.65-1.18,1.17-1.35,2.05.7-.13.93-.87,1.28-1.3-.36.32-.34.08.07-.75Z"/>
      <path d="M20.31,71.63s-.08.08-.12.12c.03,0,.06-.04.12-.12Z"/>
      <path d="M20.19,71.08c-.41.82-.43,1.07-.07.75.02-.03.04-.05.07-.08-.11-.02.03-.71,0-.67Z"/>
      <path d="M20.2,71.75s.07-.07.12-.12c-.05.03-.09.07-.13.12,0,0,0,0,.01,0Z"/>
      <path d="M40.01,79.71c-.46.86-.18,1.88-.15,3,.31-.45.37-.92.47-1.38-.64.29-.47-1.06-.32-1.62Z"/>
      <path d="M40.01,79.71c-.14.56-.32,1.91.32,1.62-.42-.35-.36-1.09-.32-1.62Z"/>
      <path d="M50.58,81.59c.1.44.07.96.41,1.36.41-.73.08-1.35-.06-1.89.07.5-.05.68-.36.53Z"/>
      <path d="M50.58,81.59c.3.15.42-.03.36-.53-.03-.1-.05-.21-.05-.3,0,.3.02.69-.3.83Z"/>
      <path d="M71.13,20.02c.29-.41.98-.74.93-1.44-.69.16-.85.97-1.27,1.29.37-.28.53-.19.35.15Z"/>
      <path d="M71.13,20.02c.18-.34.03-.43-.35-.15l.27.28s.05-.09.08-.13Z"/>
      <path d="M61.64,14.48c.21-.61.8-1.09.81-1.95-.67.31-.82.93-1.1,1.43.38-.18.47,0,.29.52Z"/>
      <path d="M61.34,13.96c.14.14.24.33.29.52.18-.53.08-.7-.29-.52Z"/>
      <path d="M34.36,79.52c-.17.53-.69,1.06-.45,1.84.58-.31.59-.9.78-1.38-.4.35-.51.2-.34-.46Z"/>
      <path d="M34.39,79.41s-.02.07-.03.11c-.17.65-.06.8.34.46-.25-.07-.32-.33-.31-.56Z"/>
      <path d="M56.54,12.04c.12-.58.67-1.12.47-1.94-.65.3-.6.95-.79,1.45.34-.32.45-.15.32.49Z"/>
      <path d="M56.22,11.55c.14.14.25.31.32.49.12-.64.01-.81-.32-.49Z"/>
      <path d="M19.84,19.6c-.43-.41-.73-.99-1.28-1.37.02.73.63,1.08.93,1.51-.17-.32-.04-.4.35-.14Z"/>
      <path d="M19.49,19.74s.05.08.08.13c.07-.11.16-.2.28-.27-.39-.26-.52-.18-.35.14Z"/>
      <path d="M11.76,26.6c-.57-.36-.99-1.15-1.94-1.06.42.62,1.11.79,1.59,1.2-.29-.3-.1-.43.35-.14Z"/>
      <path d="M11.76,26.6c-.46-.29-.64-.16-.35.14.04.03.08.07.11.1.02-.13.12-.21.24-.24Z"/>
      <path d="M29.16,77.49c-.25.48-.83.97-.61,1.73.54-.49.71-1.12,1.04-1.67-.34.26-.5.22-.43-.06Z"/>
      <path d="M29.16,77.49c-.07.28.09.32.43.06-.12-.09-.24-.19-.34-.29-.02.08-.05.16-.09.23Z"/>
      <path d="M10.98,65.81c.07-.02.15-.08.26-.19-.1,0-.18.09-.26.19Z"/>
      <path d="M12.04,64.6c-.25.31-.77.47-1.05.78l.25.24c.5-.04.7-.55,1.07-.71-.28.06-.37-.05-.27-.31Z"/>
      <path d="M10.98,65.81c.08-.1.16-.18.26-.19l-.25-.24c-.2.33-.18.49-.01.43Z"/>
      <path d="M12.31,64.91c-.1-.09-.19-.2-.27-.31-.1.27,0,.37.27.31Z"/>
      <path d="M15.07,68.9c-.21.24-.64.38-.76.94.37.02.57-.3.79-.55-.2.15-.25-.02-.03-.39Z"/>
      <path d="M15.1,69.29c.05-.04.11-.09.18-.17l-.21-.22c-.22.37-.17.54.03.39Z"/>
      <path d="M29.27,13.69c-.22-.38-.24-.91-.73-1.17-.34.56.04.88.29,1.17-.07-.19.1-.21.43,0Z"/>
      <path d="M28.84,13.7c.07.08.13.16.15.24l.28-.25c-.34-.2-.5-.18-.43,0Z"/>
      <path d="M24.15,75.09c-.22.45-.93.66-.78,1.41.5-.33.8-.72,1.09-1.11-.28.08-.39-.02-.31-.3Z"/>
      <path d="M24.46,75.39c-.12-.08-.22-.19-.31-.3-.08.28.02.39.31.3Z"/>
      <path d="M56.22,80.25c.15.37.16.81.64,1.23.3-.64-.21-1.07-.31-1.53.1.48.08.62-.33.29Z"/>
      <path d="M56.55,79.95c-.1.11-.21.2-.33.29.41.32.42.19.33-.29Z"/>
      <path d="M10.41,59.5c-.35-.24-.59-.6-1.05-.85-.15.58.36.74.48,1.11-.2-.6.07-.53.58-.26Z"/>
      <path d="M9.83,59.76c.18-.11.39-.17.58-.26-.51-.27-.78-.33-.58.26Z"/>
      <path d="M76.75,69.97c-.17-.59-.87-.7-1.11-1.08l-.02.27c.36.19.4,1.06,1.13.81Z"/>
      <path d="M81.11,59.48c.06-.22.22-.45.5-.68-.53-.44-.7.23-.96.56.34-.31.49-.29.46.12Z"/>
      <path d="M81.11,59.48c.02-.41-.12-.44-.46-.12-.04.04-.09.08-.13.13.16.12.41.14.57.27,0-.09,0-.18.03-.28Z"/>
      <path d="M34.42,10.94c-.08-.22-.34-.39-.38-.84-.53.46-.07.93.07,1.33-.17-.61-.07-.78.31-.49Z"/>
      <path d="M34.42,10.94c-.38-.28-.48-.12-.31.49,0,.03.02.05.02.08-.01-.23.03-.5.28-.57Z"/>
      <path d="M90.57,45.07c-7.53-8.79-17.21-15.45-28.14-19.3-10.78-3.8-22.13-3.98-32.94-.34-4.68,1.58-8.97,3.43-13.16,6.04-5.99,3.73-11.28,8.12-15.88,13.43-.62.71-.61,1.44.02,2.15,9.22,10.49,22.18,18.43,35.96,21.12,16.91,3.29,33.72-3.24,46.58-13.96,2.83-2.36,5.28-4.72,7.6-7.5.39-.47.41-1.11-.04-1.64ZM59.23,64.38c-2.75.8-5.52,1.7-8.41,1.85-.98.36-2.15.18-3.16.27-1.44.13-2.9.1-4.35.03-1.9-.09-3.81-.32-5.7-.58-2.03-.28-3.99-.99-5.93-1.58-10.74-3.24-20.45-9.4-28.19-17.64-.44-.47-.58-1.06-.09-1.57,7.9-8.29,17.86-14.97,28.9-17.77,2.2-.56,4.33-1.63,6.7-1.61,1.04,0,2.18-.24,3.21-.34,2.15-.21,4.33-.14,6.47.02,1.05.08,2.21.32,3.26.31,2.36,0,4.48,1.04,6.69,1.62,11.19,2.92,21.28,9.6,29.4,18.54-7.77,8.64-17.8,15.22-28.8,18.44Z"/>
      <path class="cls-2" d="M26.25,56.67c-.16-.56-.31-1.13-.47-1.69l.55-.35c-.94-2.26-1.7-4.55-1.74-6.97.79,1.07,1.13,1.79,1.81,2.38-.18-.47,0-.65.51-.53-.8-.9-1.29-1.99-1.9-3.02-1.33.15-1.49-3.52-.32-3.76.32-1.96.95-3.81,1.65-5.67-.36-.49-.27-1.05.29-1.69l-.23-1.28c-.17,1.25-.65,2.51-1.43,3.76-2.83,7.17-1.73,12.19,1.28,18.81Z"/>
      <path class="cls-2" d="M26.65,58.13c-.13-.48-.26-.97-.4-1.45-3.01-6.62-4.12-11.64-1.28-18.81.79-1.25,1.26-2.51,1.43-3.76-4.86,7.1-4.74,17.01.25,24.02Z"/>
      <path class="cls-2" d="M58.39,64.3h-.08c10.21-7.12,12.64-20.87,5.66-31.2-1.42-2.09-3.05-3.78-5.2-5.27-.08-.18-.46-.35-.13-.44-2.21-.58-4.33-1.63-6.69-1.62.36.78,1.29.73,2.16,1.28-1.18-.11-2.71.89-3.74.27l-2.81-1.69c.47-.24.79-.09,1.14-.17-2.14-.16-4.33-.23-6.47-.02.36.12.72-.06,1.09.22-1.23.25-1.87,1.8-2.97,1.71l-3.81-.3c.86-.56,1.84-.59,2.48-1.29-2.37-.02-4.5,1.06-6.7,1.61.32,0,.15.17.05.34-2.85,1.44-4.36,4.05-5.95,6.38.38.01.6.31.68.56.34,1.17-.21,1.03-.74,2.41.05,1.19,1.07,2.95.39,3.98l-1.9,2.87c-.3-.48-.09-.83-.15-1.19-.1.62-.56,2.3.32,3.76.08-.11.25-.21.49-.2l3.42.12-1.49,2.91c-.13.25-.37.29-.53.19-.07.22-.19.63-.51.53.88.76.05,3.53-.07,4.59-.21.63,1.08,3.15.32,3.49,1.53,2.15,2.91,4.57,5.72,5.97-.41.45-.48.18-.69.27,1.94.59,3.9,1.3,5.93,1.58.09-.19.36-.08.63-.34l-1.6-.9c5.53-.03,2.09-1.48,6.67,1.82,1.45.07,2.9.1,4.35-.03,3.66-3.03,1.87-2.04,6.26-1.69-.91.67-2.01,1.03-3.1,1.42,2.88-.15,5.66-1.05,8.41-1.85l-.72-.07c-.07.01-.11,0-.12-.01ZM58.33,55.65c.3,1.07.02,1.9-.11,3.03-1.06.32-2,.49-3.11.18l3.21-3.22ZM53.55,58.69c-.76-.33-.96-1.19-1.32-1.91,1.58-1.2,2.94-2.38,3.99-4.07.81.29,1.39.63,1.99,1.15-1.1,1.97-2.63,3.42-4.66,4.83ZM56.77,51.84c.73-1.73,1.23-3.38,1.36-5.37.7-.26,1.47-.19,2.3-.01-.07,2.24-.61,4.33-1.7,6.51-.78-.3-1.31-.67-1.96-1.14ZM58.19,37.91c-.51.55-1.01.8-1.95,1.21-1.13-1.64-2.33-2.93-3.95-3.98.16-.79.58-1.36,1.1-1.99,1.98,1.12,3.55,2.77,4.79,4.76ZM55.03,32.94c1.01-.03,2.24-.24,3.04.4.68.55.42,2.08.29,2.93-1.08-1.25-2.08-2.28-3.33-3.33ZM58.77,38.91c1.03,1.94,1.52,3.99,1.72,6.41-.77.28-1.5.18-2.33.07-.1-1.94-.64-3.6-1.41-5.35.58-.51,1.16-.85,2.02-1.13ZM60.24,39.57c1,.31,1.55.9,2.54,1.54-.16,1.19-.67,2.09-1.33,2.98l-1.21-4.52ZM62.86,50.47c-.8.83-1.52,1.42-2.59,1.78l1.17-4.64c.56.86.97,1.61,1.41,2.86ZM59.5,54.62c1.13.57,2.01,1.02,3.29,1.85-1.08.99-2.19,1.47-3.54,1.82-.05-1.23-.02-2.36.25-3.67ZM63.33,55.6c-1.19-.54-2.17-1.11-3.34-1.89l3.05-2.16c.51,1.26.53,2.45.29,4.04ZM61.91,46.43c1.27-.17,2.42-.09,3.94-.08-.49,1.38-1.29,2.38-2.26,3.42l-1.68-3.34ZM64.44,54.4l-.58-3.74c.97-.89,1.58-1.78,2.34-2.82-.08,2.47-.74,4.54-1.77,6.55ZM64.4,37.33c.97,2.18,1.75,4.3,1.73,6.73-2.91-4.45-2.36-1.24-1.73-6.73ZM65.72,45.37c-1.37.21-2.46.1-3.82.06l1.62-3.34c1.07.93,1.64,1.84,2.21,3.28ZM63.05,40.26c-1.07-.77-1.93-1.43-3.16-2.11,1.26-.8,2.23-1.42,3.56-1.95.1,1.48.08,2.76-.4,4.05ZM59.62,37.15c-.38-1.17-.37-2.25-.39-3.57,1.39.27,2.5.89,3.72,1.76l-3.33,1.81ZM62.28,33.74l-3.4-1.36c-.4-1.27-.78-2.34-1.51-3.38,2.03,1.23,3.71,2.8,4.91,4.74ZM57.83,32.16l-3.66-.32c.48-1.17,1.01-2.14,1.77-3.27.91,1.1,1.42,2.1,1.89,3.59ZM55.13,28l-1.84,3.3-2.25-2.94c1.36-.51,2.63-.47,4.08-.36ZM51.87,31.11c-1.69-.55-3.18-.93-4.83-1.13,1.05-.64,1.87-1.14,2.92-1.5.8.83,1.42,1.61,1.91,2.63ZM45.91,25.56c1.23.43,2.14,1.15,3.2,2.21-1.06.76-2.15,1.15-3.25,1.76-.05-1.4-.06-2.54.05-3.97ZM45.93,30.84c2.38.07,4.48.65,6.5,1.71-.21.72-.51,1.16-1.07,1.99-1.81-.73-3.42-1.33-5.36-1.38-.26-.79-.22-1.53-.06-2.31ZM32.59,53.98c.48-.61,1.21-.99,2.01-1.19,1.02,1.5,2.16,2.68,3.82,3.75.03.89-.5,1.52-1.04,2.18-2-1.21-3.51-2.74-4.78-4.74ZM35.73,58.86c-1.08.34-1.98.08-3.04-.12-.46-1.02-.5-2.1-.33-3.27,1.07,1.22,1.98,2.27,3.37,3.39ZM32.03,52.95c-1.03-2.06-1.6-4.1-1.7-6.48.73-.23,1.49-.2,2.29-.04.19,1.87.59,3.55,1.41,5.39-.62.56-1.28.87-2,1.12ZM30.37,45.39c.08-2.27.57-4.39,1.64-6.43.69.1,1.61.49,1.93,1.1-.59,1.73-1.26,3.44-1.27,5.31-.8.16-1.46.12-2.31.01ZM32.77,33.32c.72-.72,2.09-.41,2.92-.36l-3.3,3.28c-.18-.77-.31-2.24.38-2.93ZM32.61,37.96c1.18-2.02,2.77-3.58,4.71-4.85.6.6,1,1.21,1.17,2.06-1.59.96-2.6,2.27-3.88,3.73-.6.31-1.55-.59-1.99-.94ZM38.42,32.53c2.07-1.03,4.16-1.63,6.41-1.64.19.79.16,1.36.01,2.33-1.91-.07-3.4.66-5.19,1.17-.59.16-1.15-1.25-1.23-1.85ZM44.89,25.71c.07,1.3.1,2.3-.04,3.8l-3.21-1.65c.84-1.06,1.91-1.74,3.25-2.15ZM40.73,28.7c.9-.22,1.91.77,2.74,1.18l-4.47,1.24c.45-.82.9-2.05,1.73-2.41ZM39.71,28.3c-.8,1.05-1.47,1.92-2.11,3.03-.82-.99-1.26-2.03-1.95-3.26,1.4-.33,2.68-.11,4.06.23ZM36.6,31.8l-3.59.32c.36-1.52.87-2.6,1.83-3.56l1.76,3.25ZM33.18,29.1c-2.19,4.94.14,2.35-4.7,4.71,1.16-1.98,2.73-3.4,4.7-4.71ZM31.54,33.52c.08,1.23-.11,2.29-.26,3.74l-3.31-1.91c.93-.9,2.06-1.55,3.57-1.83ZM27.42,36.2c1.26.56,2.3,1.12,3.38,1.95-1.13.69-2.08,1.33-3.1,2.15-.36-1.39-.47-2.61-.28-4.1ZM25,45.41c.55-1.23,1.11-2.24,2.18-3.31.71,1.06.98,2.01,1.61,3.28-1.41.18-2.47.09-3.79.02ZM28.12,41.37c.21-.89,1.6-1.35,2.34-1.77l-1.14,4.65c-.43-.88-1.32-1.85-1.2-2.88ZM29.31,47.65l1.21,4.73c-.73-.54-2.12-.95-2.42-1.88-.24-.98.83-2.08,1.21-2.85ZM27.7,51.6l3.01,2.11c-.99.89-2.14,1.26-3.28,1.97-.2-1.46-.12-2.65.28-4.08ZM31.31,54.6c.19,1.18.2,2.21.3,3.76-1.37-.27-2.5-.95-3.62-1.91,1.02-.67,1.98-1.2,3.32-1.85ZM28.46,58.04l3.33,1.23,1.38,3.42c-1.86-1.16-3.41-2.65-4.71-4.65ZM33.03,59.75c1.24-.02,2.23.05,3.64.22-.49,1.27-1.09,2.14-1.82,3.31-.95-1.01-1.57-2.13-1.83-3.53ZM35.73,63.77c.59-1.2,1.09-2.16,1.87-3.34l1.97,3.06c-1.3.44-2.46.48-3.84.27ZM38.89,60.68l4.7,1.31c-.84.75-1.83,1.06-2.95,1.32-.71-.85-1.24-1.63-1.75-2.62ZM44.92,66.24c-1.31-.48-2.37-1.17-3.34-2.21l3.35-1.71v3.91ZM44.84,60.99c-2.31-.08-4.42-.67-6.45-1.73.19-.82.52-1.48,1.14-2.03,1.73.88,3.4,1.31,5.3,1.47.16.77.16,1.38,0,2.29ZM44.34,56.53c.38.02.81.72.54,1.14-1.63.22-3.4-.43-4.91-1.2-.1-.36.25-.79.42-1.13-.28-.15-.56-.31-.82-.49-.01.34-.37,1.11-.82.86-.95-.54-4.82-3.69-2.37-4.09-.22-.35-.42-.7-.59-1.07-.02.26-.14.53-.38.65-1.14.56-1.91-3.8-1.8-4.69.15-.27.83-.17,1.14-.23,0-.26,0-.53,0-.79-2.3.77-.49-3.92.15-4.87.24-.35,1,.26.95.58.17-.35.37-.7.58-1.03-.26-.1-1-.35-.91-.62.73-1.51,1.99-2.75,3.39-3.57.35.14.52.65.69.99.32-.21.65-.4.99-.57-.29-.06-.83-.83-.57-.99,1.02-.65,5.65-2.5,4.91-.14.27-.01.55-.01.83,0,.05-.28-.01-1.01.27-1.15,1.75-.15,3.37.48,4.85,1.26-.06.57-.29.77-.62,1.05.28.15.56.3.83.48.2-.35.41-.93.76-.97.73.22,5.28,4.29,2.5,4.2.28.43.52.88.74,1.35,0-.19-.26-.55-.02-.68.15-.08.42-.23.78-.3.89,1.34,1.26,3.11,1.36,4.86-.44.18-.82.11-1.16.11.01.34.01.69,0,1.04.18-.17.84-.27,1.09-.02.1,1.65-.41,3.36-1.19,4.82-.46-.01-.74-.16-1.17-.3-.11.2-.22.39-.34.58,2.39.42-1.84,4.04-2.58,4.23-.32.1-.61-.66-.75-.89-.21.13-.42.26-.64.38.15.44.29.72.34,1.22-1.48.67-3.07,1.27-4.8,1.2-.29-.01-.21-.95-.06-1.16-.54.03-1.08.02-1.61-.04ZM45.87,58.71c1.91-.17,3.63-.7,5.43-1.41.5.66.83,1.2,1.17,1.95-2.01,1.05-4.13,1.64-6.51,1.76-.22-.82-.14-1.47-.09-2.3ZM45.99,66.21c-.17-1.36-.17-2.52-.07-3.88l3.37,1.7c-1.01,1.07-2.01,1.7-3.3,2.18ZM50.21,63.07c-1.04.55-2.24-.75-3.13-1.03l4.71-1.23c-.34.69-.72,1.81-1.58,2.26ZM51.21,63.5l1.93-2.97c.86.91,1.22,1.98,1.96,3.26-1.34.34-2.58.09-3.9-.29ZM54.03,59.95c1.19-.14,2.01-.21,3.67-.23-.04,1.33-.82,2.43-1.74,3.64l-1.93-3.41ZM62.22,58.11c-1.12,1.94-2.64,3.27-4.57,4.59,1.71-4.26.45-2.9,4.57-4.59Z"/>
      <path class="cls-2" d="M59.16,64.08s-.03-.05-.05-.05c-.35-.03-.74.21-.72.27,0,.02.04.02.12.01.11-.02.32-.09.65-.23Z"/>
      <path class="cls-2" d="M25.01,46.51c-.87-1.46-.42-3.14-.32-3.76-1.18.24-1.02,3.91.32,3.76Z"/>
      <path class="cls-2" d="M26.4,50.05c.32.11.44-.31.51-.53-.51-.12-.68.06-.51.53Z"/>
      <path class="cls-2" d="M26.25,56.67c.07.16.15.32.22.49.14.31.24.61.18.96.76-.33-.53-2.86-.32-3.49l-.55.35c.16.57.32,1.13.47,1.69Z"/>
      <path class="cls-2" d="M26.34,37.08c.52-1.38,1.07-1.24.74-2.41-.07-.25-.29-.55-.68-.56l.23,1.28c-.55.64-.65,1.21-.29,1.69Z"/>
      <path class="cls-2" d="M26.47,57.16c-.08-.16-.15-.33-.22-.49.13.48.27.97.4,1.45.07-.35-.03-.65-.18-.96Z"/>
      <path class="cls-2" d="M26.23,53.79c.04.28.07.57.1.85.12-1.05.96-3.82.07-4.59-.24,1.14-.29,2.48-.17,3.74Z"/>
      <path d="M51.1,54.93c1.34-.85,2.48-1.99,3.33-3.34.12-.19.23-.39.34-.58.75-1.39,1.19-2.92,1.27-4.5.02-.34.02-.69,0-1.04-.06-1.38-.38-2.73-.96-3.99-.21-.47-.46-.92-.74-1.35-.84-1.3-1.95-2.4-3.26-3.23-.27-.17-.55-.33-.83-.48-1.4-.72-2.94-1.12-4.51-1.17-.27,0-.55,0-.83,0-1.51.07-2.99.45-4.34,1.13-.34.17-.67.36-.99.57-1.27.83-2.36,1.91-3.18,3.19-.21.33-.41.68-.58,1.03-.66,1.34-1.04,2.8-1.1,4.29-.01.26-.01.53,0,.79.05,1.48.41,2.93,1.05,4.27.18.37.38.73.59,1.07.82,1.3,1.91,2.4,3.19,3.24.27.17.54.34.82.49,1.23.65,2.57,1.06,3.95,1.2.54.05,1.08.07,1.61.04,1.58-.08,3.12-.52,4.51-1.27.22-.12.43-.24.64-.38Z"/>
    </g>
  </g>
</svg>